<?xml version="1.0"?>
<svg xmlns="http://www.w3.org/2000/svg" xmlns:xlink="http://www.w3.org/1999/xlink" xmlns:svgjs="http://svgjs.com/svgjs" version="1.1" width="512" height="512" x="0" y="0" viewBox="0 0 512.313 512.313" style="enable-background:new 0 0 512 512" xml:space="preserve"><circle r="256.1565" cx="256.1565" cy="256.1565" fill="#2a879b" shape="circle" transform="matrix(0.82,0,0,0.82,46.108168945312514,46.108168945312514)"/><g transform="matrix(0.7,0,0,0.7,76.84699172973635,76.84680347442628)">
<g xmlns="http://www.w3.org/2000/svg">
	<path style="" d="M296.628,252.259c-9.408-27.912-39.663-42.913-67.575-33.504   c-26.161,8.818-41.268,36.142-34.825,62.987c19.2,66.752,89.429,126.656,153.749,177.557c4.619,3.658,11.328,2.88,14.987-1.739   c3.658-4.619,2.88-11.328-1.739-14.987c-61.739-48.853-129.045-106.048-146.496-166.72c-4.884-16.996,4.935-34.732,21.931-39.616   s34.732,4.935,39.616,21.931c11.648,40.533,69.568,90.624,124.672,134.229c4.619,3.658,11.328,2.88,14.987-1.739   c3.658-4.619,2.88-11.328-1.739-14.987C385.097,352.697,308.041,291.726,296.628,252.259z" fill="#ffc107" data-original="#ffc107"/>
	<path style="" d="M377.481,224.761c-23.19-71.1-98.323-111.263-170.325-91.051   c-73.613,21.122-116.165,97.921-95.042,171.534c0.015,0.052,0.03,0.105,0.045,0.157c17.515,60.843-20.032,77.717-32,81.429   c-5.62,1.767-8.743,7.756-6.976,13.376c1.767,5.62,7.756,8.743,13.376,6.976c32.619-10.197,64.299-44.501,46.101-107.691   c-17.94-62.269,17.996-127.29,80.264-145.23c0.033-0.009,0.066-0.019,0.098-0.028c61.568-17.306,125.716,17.587,144.64,78.677   c0.252,0.832,0.611,1.628,1.067,2.368c1.109,1.835,3.392,5.696,71.957,61.333c4.571,3.717,11.291,3.025,15.008-1.547   c3.717-4.571,3.025-11.291-1.547-15.008C419.231,259.833,382.815,229.774,377.481,224.761z" fill="#ffc107" data-original="#ffc107"/>
	<path style="" d="M337.673,240.462c-14.733-50.875-67.83-80.261-118.763-65.728   c-50.011,15.44-79.038,67.48-65.899,118.144c21.547,98.133,5.44,120.789-38.763,134.613c-5.62,1.767-8.743,7.756-6.976,13.376   c1.767,5.62,7.756,8.743,13.376,6.976c61.76-19.2,75.179-59.563,53.333-159.552c-10.613-39.648,11.825-80.634,50.944-93.056   c39.638-11.253,80.922,11.624,92.395,51.2c4.267,14.549,15.595,34.517,102.955,103.659c4.619,3.658,11.328,2.88,14.987-1.739   c3.658-4.619,2.88-11.328-1.739-14.987C354.228,270.649,340.66,250.787,337.673,240.462z" fill="#ffc107" data-original="#ffc107"/>
	<path style="" d="M367.028,388.942c-36.096-27.392-96.512-73.216-111.381-124.885   c-1.724-5.633-7.689-8.802-13.322-7.077c-5.495,1.682-8.67,7.415-7.18,12.965c16.811,58.496,80.768,107.008,118.976,136   c7.765,5.591,15.241,11.572,22.4,17.92c4.237,4.093,10.99,3.976,15.083-0.261c3.993-4.134,3.993-10.688,0-14.821   C383.792,401.712,375.587,395.088,367.028,388.942z" fill="#ffc107" data-original="#ffc107"/>
	<path style="" d="M309.3,463.139c-10.781-20.001-30.639-33.489-53.205-36.139c-36.267,0-41.877,61.653-42.667,74.005   c-0.365,5.879,4.105,10.941,9.984,11.307h0.683c5.642,0.011,10.317-4.374,10.667-10.005c1.344-21.973,9.749-53.973,21.333-53.973   c15.808,0,27.029,15.232,36.032,27.456c2.974,4.24,6.231,8.274,9.749,12.075c4.237,4.093,10.99,3.975,15.083-0.262   c3.993-4.134,3.993-10.687,0-14.821C314.199,469.738,311.641,466.516,309.3,463.139z" fill="#ffc107" data-original="#ffc107"/>
	<path style="" d="M212.937,370.425c-2.005-5.539-8.121-8.404-13.66-6.399c-5.21,1.886-8.109,7.448-6.67,12.799   c9.131,28.523-8.811,84.501-35.797,93.269c-5.622,1.76-8.753,7.744-6.994,13.366c1.76,5.622,7.744,8.753,13.366,6.994   c0.074-0.023,0.147-0.047,0.22-0.072C204.447,477.155,224.244,405.859,212.937,370.425z" fill="#ffc107" data-original="#ffc107"/>
	<path style="" d="M440.713,224.846c-13.333-4.267-23.808-21.333-35.947-40.811   c-25.685-41.515-60.907-98.368-159.339-98.368C145.329,85.785,64.212,166.902,64.095,267.001c0,5.891,4.776,10.667,10.667,10.667   s10.667-4.776,10.667-10.667c0.094-88.327,71.673-159.906,160-160c86.549,0,116.864,48.939,141.227,88.277   c14.336,23.147,26.709,43.136,47.488,49.877c5.583,1.881,11.633-1.12,13.514-6.702c1.881-5.583-1.12-11.633-6.702-13.514   c-0.073-0.025-0.146-0.048-0.22-0.072L440.713,224.846z" fill="#ffc107" data-original="#ffc107"/>
	<path style="" d="M85.428,352.334c5.891,0,10.667-4.776,10.666-10.667c0-1.659-0.387-3.295-1.13-4.778   c-4.552-8.533-7.769-17.713-9.536-27.221c0-5.891-4.776-10.667-10.667-10.667s-10.667,4.776-10.667,10.667   c1.712,12.864,5.708,25.319,11.797,36.779C77.7,350.055,81.391,352.334,85.428,352.334z" fill="#ffc107" data-original="#ffc107"/>
	<path style="" d="M79.881,126.777c5.03,3.066,11.594,1.475,14.66-3.555c0.006-0.01,0.012-0.019,0.017-0.029   c9.259-15.275,54.869-58.859,140.203-58.859c82.005,0,140.352,41.536,150.869,58.859c3.057,5.037,9.619,6.641,14.656,3.584   c5.037-3.057,6.641-9.619,3.584-14.656l0,0c-14.635-24.107-79.253-69.12-169.109-69.12c-95.552,0-146.773,49.899-158.464,69.141   C73.253,117.174,74.856,123.721,79.881,126.777z" fill="#ffc107" data-original="#ffc107"/>
	<path style="" d="M143.028,42.062c4.885-2.133,9.024-4.267,12.949-6.4c16.043-8.085,27.584-13.995,78.784-13.995   c34.571-1.905,69.149,3.631,101.397,16.235c4.075,1.515,8.171,3.029,12.459,4.501c1.118,0.388,2.293,0.59,3.477,0.597   c5.891,0.011,10.675-4.756,10.686-10.647c0.008-4.566-2.89-8.63-7.209-10.11c-4.139-1.429-8.064-2.88-11.989-4.267   C308.962,4.475,271.874-1.538,234.761,0.334c-56.405,0-70.528,7.253-88.448,16.448c-3.605,1.856-7.445,3.819-11.925,5.824   c-5.474,2.176-8.148,8.378-5.973,13.852c2.176,5.474,8.378,8.148,13.852,5.973c0.28-0.111,0.555-0.234,0.824-0.369L143.028,42.062z   " fill="#ffc107" data-original="#ffc107"/>
	<path style="" d="M427.252,184.91c2.005,5.539,8.121,8.404,13.66,6.399c5.21-1.886,8.109-7.448,6.67-12.799   c-6.052-15.671-13.559-30.742-22.421-45.013c-3.087-5.019-9.658-6.586-14.677-3.499s-6.586,9.658-3.499,14.677   C414.926,157.456,421.709,170.922,427.252,184.91z" fill="#ffc107" data-original="#ffc107"/>
</g>
<g xmlns="http://www.w3.org/2000/svg">
</g>
<g xmlns="http://www.w3.org/2000/svg">
</g>
<g xmlns="http://www.w3.org/2000/svg">
</g>
<g xmlns="http://www.w3.org/2000/svg">
</g>
<g xmlns="http://www.w3.org/2000/svg">
</g>
<g xmlns="http://www.w3.org/2000/svg">
</g>
<g xmlns="http://www.w3.org/2000/svg">
</g>
<g xmlns="http://www.w3.org/2000/svg">
</g>
<g xmlns="http://www.w3.org/2000/svg">
</g>
<g xmlns="http://www.w3.org/2000/svg">
</g>
<g xmlns="http://www.w3.org/2000/svg">
</g>
<g xmlns="http://www.w3.org/2000/svg">
</g>
<g xmlns="http://www.w3.org/2000/svg">
</g>
<g xmlns="http://www.w3.org/2000/svg">
</g>
<g xmlns="http://www.w3.org/2000/svg">
</g>
</g></svg>
